#!OML:ASF H:\ManfredETheater\Project 1\Capture day 1\Session 1\subject.ASF
:FULLY-SPECIFIED
:DEGREES
209
root -6.16408 9.77365 -8.83971 30.1256 70.0301 24.7553
lowerback 61.3861 -10.4981 4.07662
upperback 12.7813 -6.37 1.07813
thorax -6.94888 -1.80751 2.09839
lowerneck 8.13028 -14.8025 -13.846
upperneck -20.1018 -19.5316 20.063
head -3.74302 -10.4835 9.05848
rclavicle -2.0276e-014 1.17382e-013
rhumerus -13.2201 -5.73134 -47.6832
rradius 96.9866
rwrist -10.2902
rhand -28.9862 -10.0917
rfingers 7.12502
rthumb -2.33838 -40.0586
lclavicle -2.0276e-014 1.17382e-013
lhumerus -16.7812 18.0332 50.7734
lradius 94.9708
lwrist 11.9322
lhand -23.6577 0.361035
lfingers 7.12502
lthumb 2.80796 30.3223
rfemur -95.3538 -54.4783 17.5575
rtibia 132.812
rfoot -34.7448 -1.86441
rtoes -36.2782
lfemur -89.5526 28.066 -2.53907
ltibia 129.004
lfoot -10.5757 -32.5428
ltoes -16.1208
210
root -6.16982 9.81624 -8.73743 30.8452 70.2103 25.318
lowerback 61.0627 -10.633 4.12029
upperback 12.8859 -6.54985 0.895112
thorax -6.84473 -1.87187 1.94507
lowerneck 8.15195 -14.8034 -13.8855
upperneck -19.7104 -19.5708 20.0025
head -3.62764 -10.497 9.01248
rclavicle -2.90226e-014 8.92543e-014
rhumerus -13.5626 -5.58896 -48.363
rradius 96.4236
rwrist -10.7007
rhand -28.5886 -9.78035
rfingers 7.12502
rthumb -1.95437 -39.7511
lclavicle -2.90226e-014 8.92543e-014
lhumerus -16.7525 17.8182 50.9425
lradius 94.8129
lwrist 12.1609
lhand -23.5508 0.336312
lfingers 7.12502
lthumb 2.91119 30.2962
rfemur -95.6776 -54.5725 18.548
rtibia 132.982
rfoot -34.731 -2.3389
rtoes -35.8717
lfemur -90.963 28.0855 -4.30097
ltibia 129.684
lfoot -10.7855 -31.0647
ltoes -14.8621
211
root -6.17459 9.85197 -8.63515 31.3747 70.455 25.6644
lowerback 60.7041 -10.7624 4.19265
upperback 12.9903 -6.70952 0.737908
thorax -6.73878 -1.93064 1.79914
lowerneck 8.1696 -14.7978 -13.9357
upperneck -19.2973 -19.6005 19.9582
head -3.50364 -10.5064 8.97134
rclavicle 0 6.11263e-014
rhumerus -13.9253 -5.48969 -49.1005
rradius 95.85
rwrist -11.1807
rhand -28.1038 -9.42789
rfingers 7.12502
rthumb -1.48619 -39.4025
lclavicle 0 6.11263e-014
lhumerus -16.6748 17.5225 51.0506
lradius 94.5928
lwrist 12.2078
lhand -23.3636 0.213044
lfingers 7.12502
lthumb 3.09193 30.1704
rfemur -96.0898 -54.695 19.6715
rtibia 133.196
rfoot -34.6786 -2.77191
rtoes -35.5672
lfemur -92.3906 27.9964 -6.12796
ltibia 130.351
lfoot -11.2654 -30.1161
ltoes -13.8861
212
root -6.17913 9.88325 -8.53255 31.6748 70.7701 25.781
lowerback 60.3646 -10.8929 4.28918
upperback 13.0816 -6.85192 0.610036
thorax -6.64535 -1.98442 1.66905
lowerneck 8.18658 -14.7819 -14.0036
upperneck -18.8717 -19.6155 19.938
head -3.37347 -10.5096 8.93979
rclavicle 8.8658e-014 -3.91606e-014
rhumerus -14.2976 -5.43566 -49.9064
rradius 95.2795
rwrist -11.7321
rhand -27.5529 -9.05302
rfingers 7.12502
rthumb -0.954121 -39.0306
lclavicle 8.8658e-014 -3.91606e-014
lhumerus -16.5646 17.1556 51.0854
lradius 94.3122
lwrist 12.0588
lhand -23.1165 -0.000230401
lfingers 7.12502
lthumb 3.33064 29.9535
rfemur -96.4703 -54.8177 20.82
rtibia 133.437
rfoot -34.5727 -3.11189
rtoes -35.3728
lfemur -93.7689 27.7626 -8.0064
ltibia 130.965
lfoot -11.9528 -29.6549
ltoes -13.4285
213
root -6.1834 9.91003 -8.42967 31.7456 71.1732 25.6657
lowerback 60.044 -11.0386 4.4227
upperback 13.1582 -6.98407 0.51796
thorax -6.56514 -2.03628 1.55948
lowerneck 8.20284 -14.7547 -14.0943
upperneck -18.4449 -19.6144 19.9464
head -3.23964 -10.5057 8.92087
rclavicle 1.20861e-013 -1.07344e-013
rhumerus -14.6697 -5.431 -50.7738
rradius 94.7319
rwrist -12.3649
rhand -26.9651 -8.70944
rfingers 7.12502
rthumb -0.386398 -38.6888
lclavicle 1.20861e-013 -1.07344e-013
lhumerus -16.4366 16.7311 51.0389
lradius 93.9798
lwrist 11.7277
lhand -22.8324 -0.296005
lfingers 7.12502
lthumb 3.60498 29.6533
rfemur -96.8384 -54.9671 21.9847
rtibia 133.709
rfoot -34.3798 -3.3011
rtoes -35.3128
lfemur -95.0984 27.3511 -9.936
ltibia 131.516
lfoot -12.794 -29.5581
ltoes -13.7423
214
root -6.18862 9.93793 -8.32483 31.3471 71.6519 25.2125
lowerback 59.9886 -11.1847 4.54734
upperback 13.1792 -7.08068 0.473123
thorax -6.54661 -2.07178 1.49809
lowerneck 8.21785 -14.7175 -14.2035
upperneck -18.0297 -19.5982 19.9845
head -3.10601 -10.4956 8.91524
rclavicle -1.07344e-014 3.0911e-014
rhumerus -15.0369 -5.48015 -51.699
rradius 94.217
rwrist -13.0394
rhand -26.3879 -8.4285
rfingers 7.12502
rthumb 0.171086 -38.4082
lclavicle -1.07344e-014 3.0911e-014
lhumerus -16.301 16.2521 50.9151
lradius 93.6189
lwrist 11.2564
lhand -22.5289 -0.665564
lfingers 7.12502
lthumb 3.89806 29.2785
rfemur -96.8451 -55.1364 22.9526
rtibia 133.977
rfoot -34.1221 -3.31056
rtoes -35.3781
lfemur -96.1007 26.7899 -11.7815
ltibia 131.962
lfoot -13.7403 -29.7334
ltoes -14.7025
215
root -6.19414 9.96367 -8.21838 30.5381 72.2052 24.3945
lowerback 60.0528 -11.3275 4.67938
upperback 13.1708 -7.14705 0.479178
thorax -6.55732 -2.09645 1.48043
lowerneck 8.23493 -14.6696 -14.3328
upperneck -17.6357 -19.5658 20.0532
head -2.97596 -10.4788 8.92464
rclavicle 3.00165e-014 1.85864e-014
rhumerus -15.3936 -5.57938 -52.679
rradius 93.7428
rwrist -13.7267
rhand -25.8571 -8.2134
rfingers 7.12502
rthumb 0.683803 -38.192
lclavicle 3.00165e-014 1.85864e-014
lhumerus -16.1794 15.7324 50.7
lradius 93.2521
lwrist 10.7014
lhand -22.2232 -1.09261
lfingers 7.12502
lthumb 4.19323 28.8459
rfemur -96.7255 -55.3353 23.8699
rtibia 134.264
rfoot -33.7406 -3.12141
rtoes -35.5972
lfemur -96.9195 26.1446 -13.5759
ltibia 132.324
lfoot -14.6588 -30.079
ltoes -16.0348
